<svg width="47" height="47" viewBox="0 0 47 47" fill="none" xmlns="http://www.w3.org/2000/svg">
<path d="M44.4555 36.2266L33.9337 27.2052C37.9089 20.2687 36.7647 11.49 31.0818 5.80689C24.1388 -1.13579 12.9012 -1.13654 5.95741 5.80699C-0.985266 12.7498 -0.98634 23.9882 5.95741 30.9319C11.772 36.747 20.5218 37.6474 27.2532 33.841L35.9179 44.5315C38.1467 47.2812 42.2738 47.5123 44.7916 44.9945C47.252 42.534 47.097 38.4912 44.4555 36.2266ZM7.47657 29.4119C1.3735 23.3089 1.37243 13.43 7.47657 7.32583C13.5795 1.22287 23.4586 1.2219 29.5625 7.32583C36.5163 14.2797 35.4164 26.1015 26.9221 31.5358C26.9219 31.5359 26.9216 31.5362 26.9214 31.5363C20.9552 35.3516 12.8262 34.7619 7.47657 29.4119ZM43.2723 43.4751C41.666 45.0816 39.0203 44.9469 37.5868 43.1785L29.0667 32.6664C30.4861 31.615 31.7375 30.3612 32.7436 29.0147L43.0572 37.8576C44.743 39.3031 44.8611 41.8866 43.2723 43.4751Z" fill="white"/>
</svg>
