<svg width="42" height="50" viewBox="0 0 42 50" fill="none" xmlns="http://www.w3.org/2000/svg">
<path d="M7.79701 41.1759L20.5235 49.8503C20.8183 50.0501 21.2049 50.0501 21.4997 49.8503L34.2337 41.1763C38.1642 38.4967 41.2586 32.673 41.2586 27.9186V10.3658C41.2527 10.0347 41.0605 9.7357 40.7623 9.59228L21.4038 0.0880103C21.1632 -0.0293368 20.8818 -0.0293368 20.6413 0.0880103L1.27269 9.5662C0.973222 9.70878 0.780167 10.0083 0.773438 10.3397V27.9186C0.773438 32.673 3.86694 38.4967 7.79701 41.1759ZM2.49621 10.8768L21.0164 1.82088L39.5362 10.902V27.9186C39.5362 32.1624 36.7733 37.3606 33.2643 39.753L21.0232 48.096L8.77154 39.7526C5.26333 37.361 2.49621 32.1624 2.49621 27.9186V10.8768Z" fill="white"/>
</svg>
