<svg width="22" height="22" viewBox="0 0 22 22" fill="none" xmlns="http://www.w3.org/2000/svg">
<path d="M19.6429 2.35714H17.2857V0.785729C17.2857 0.351776 16.9339 0 16.5 0C16.066 0 15.7143 0.351776 15.7143 0.785729V2.35714H6.28569V0.785729C6.28569 0.351776 5.93392 0 5.50001 0C5.0661 0 4.71428 0.351776 4.71428 0.785729V2.35714H2.35714C1.05533 2.35714 0 3.41247 0 4.71428V19.6429C0 20.9447 1.05533 22 2.35714 22H19.6429C20.9447 22 22 20.9447 22 19.6429V4.71428C22 3.41247 20.9447 2.35714 19.6429 2.35714ZM20.4285 19.6429C20.4285 20.0768 20.0768 20.4286 19.6428 20.4286H2.35714C1.92319 20.4286 1.57141 20.0768 1.57141 19.6429V9.42857H20.4285V19.6429ZM20.4285 7.85715H1.57141V4.71428C1.57141 4.28033 1.92319 3.92855 2.35714 3.92855H4.71428V5.49997C4.71428 5.93392 5.06606 6.28569 5.50001 6.28569C5.93396 6.28569 6.28574 5.93392 6.28574 5.49997V3.92855H15.7143V5.49997C15.7143 5.93392 16.0661 6.28569 16.5 6.28569C16.934 6.28569 17.2858 5.93392 17.2858 5.49997V3.92855H19.6429C20.0769 3.92855 20.4286 4.28033 20.4286 4.71428V7.85715H20.4285Z" fill="#89C249"/>
</svg>
